# xmcd
#
# Track frame offsets: 
#        150
#        20473
#        38045
#        60078
#        77964
#        95670
#
# Disc length: 1584 seconds
#
# Revision: 0
# Processed by: cddbd v1.5.2PL0 Copyright (c) Steve Scherf et al.
# Submitted via: ExactAudioCopy v1.0b1
#
DISCID=3e062e06
DTITLE=ミドリカワ書房 - 家族ゲーム
DYEAR=2006
DGENRE=Pops
TTITLE0=I am a mother
TTITLE1=豆電球の灯りの中で
TTITLE2=メシ喰えよ！
TTITLE3=許さない 忘れない
TTITLE4=もも
TTITLE5=母さん
EXTD=
EXTT0=
EXTT1=
EXTT2=
EXTT3=
EXTT4=
EXTT5=
PLAYORDER=
